PathFileType	4	(X/Y/Z)	US003Walk_3.trc	
DataRate	CameraRate	NumFrames	NumMarkers	Units	OrigDataRate	OrigDataStartFrame	OrigNumFrames	
100.00	100.00	15	22	mm	100.00	967	99	
Frame#	Time	LFEO			LFEP			LTIO			RFEO			RFEP			RTIO			LASI			RASI			LPSI			RPSI			LTHI			LKNE			LTIB			LANK			LHEE			LTOE			RTHI			RKNE			RTIB			RANK			RHEE			RTOE			
		X1	Y1	Z1	X2	Y2	Z2	X3	Y3	Z3	X4	Y4	Z4	X5	Y5	Z5	X6	Y6	Z6	X7	Y7	Z7	X8	Y8	Z8	X9	Y9	Z9	X10	Y10	Z10	X11	Y11	Z11	X12	Y12	Z12	X13	Y13	Z13	X14	Y14	Z14	X15	Y15	Z15	X16	Y16	Z16	X17	Y17	Z17	X18	Y18	Z18	X19	Y19	Z19	X20	Y20	Z20	X21	Y21	Z21	X22	Y22	Z22	

1	0.000	761.82434	339.12051	-492.00635	805.17072	583.70184	-488.89813	632.56293	111.08156	-522.88245	924.24908	356.40805	-366.13538	804.17944	576.94604	-356.14951	924.64850	97.25805	-341.63239	855.71674	629.35236	-508.60632	853.04407	620.24390	-330.40399	739.86823	662.31848	-450.90729	739.59930	654.63654	-391.49866	777.21271	432.66565	-587.17621	761.37378	339.78479	-537.99933	704.73572	194.97299	-600.36737	640.82697	110.58238	-553.79291	595.71124	141.80389	-546.73022	657.76068	32.42326	-489.12686	876.78088	430.49002	-270.19675	922.36652	353.28409	-319.77866	958.61432	196.00659	-277.09286	938.32135	100.05429	-312.28134	885.06451	105.57684	-331.64920	1004.18188	39.26240	-354.67224 
2	0.010	770.86023	336.95242	-491.00928	815.17627	581.62665	-487.31064	636.45453	111.85514	-522.14099	933.38922	354.48355	-367.51608	815.13257	575.49683	-354.52792	930.02911	96.18768	-338.87076	865.38434	627.39362	-507.42465	863.98639	619.13434	-329.48572	749.70081	660.05878	-449.15439	749.79120	652.88739	-389.62427	785.58722	430.78265	-585.76184	769.93195	337.81558	-536.99176	709.65106	194.74873	-599.71191	644.41010	111.39105	-553.13269	600.31140	143.85042	-545.41980	658.53217	32.16492	-489.05676	890.39374	429.81177	-270.62939	933.47052	351.79892	-321.09366	969.33563	194.49739	-277.92828	945.33527	99.15104	-310.35434	891.34167	104.60381	-327.96002	1010.03491	38.34489	-354.09515 
3	0.020	780.57257	334.64651	-489.92993	825.22394	579.51038	-485.53793	641.08636	112.54983	-521.47662	942.48535	353.21304	-368.47775	825.89246	574.45764	-352.71149	933.39764	96.01579	-336.44891	875.17072	625.27509	-506.13577	874.72791	618.46606	-328.42783	759.57770	657.92358	-447.65903	759.88116	651.53717	-387.98395	794.26221	428.77017	-584.19818	779.10687	335.73822	-535.89362	715.33954	194.58928	-599.05048	648.73920	112.15644	-552.54553	605.77429	145.93895	-544.18262	659.48914	31.87677	-489.06940	903.94659	429.95013	-270.77515	944.59991	351.02084	-322.07761	978.68463	193.26207	-278.85068	950.29163	98.85815	-308.83075	895.78723	104.72253	-324.90137	1013.38989	37.66223	-353.85611 
4	0.030	790.81610	332.29279	-488.75861	835.24664	577.42017	-483.53506	646.49030	113.12501	-520.90161	951.36218	352.57065	-368.86139	836.34229	573.94800	-350.66080	935.55835	96.62758	-334.51254	885.01428	623.05707	-504.72540	885.14288	618.36499	-327.16208	769.43372	655.99738	-446.47412	769.79034	650.65369	-386.64844	803.15540	426.71008	-582.48541	788.76868	333.64273	-534.69312	721.78815	194.53630	-598.38275	653.84918	112.84609	-552.04266	612.13672	148.00552	-543.04620	660.66016	31.57601	-489.18430	916.99225	430.80447	-270.49731	955.41583	350.87094	-322.56955	986.61530	192.32460	-279.58353	953.78253	99.09841	-307.71655	899.00763	105.77617	-322.58896	1014.99994	37.18402	-353.82199 
5	0.040	801.41449	330.01520	-487.48734	845.19214	575.45056	-481.29147	652.67383	113.55179	-520.42493	959.89099	352.46439	-368.56384	846.41553	574.03760	-348.38043	937.18939	97.78897	-333.11652	894.86041	620.83954	-503.19061	895.15991	618.89795	-325.66031	779.22095	654.36047	-445.59711	779.47827	650.25897	-385.63040	812.17700	424.71417	-580.63403	798.75879	331.64737	-533.38159	728.95032	194.64012	-597.71063	659.74994	113.43810	-551.63245	619.39734	149.99493	-542.03973	662.08282	31.29426	-489.42044	929.05884	432.10617	-269.70273	965.57776	351.17447	-322.43088	993.09802	191.66589	-279.83466	956.32635	99.72928	-306.92001	901.51129	107.51616	-320.96176	1015.54565	36.86432	-353.87241 
6	0.050	812.18158	327.96271	-486.11069	855.01538	573.71808	-478.85446	659.61743	113.82580	-520.05341	967.98352	352.75473	-367.55322	856.09320	574.71405	-345.93832	938.68335	99.20844	-332.18066	904.65930	618.75708	-501.54636	904.76440	620.03204	-323.95325	788.90479	653.08264	-444.96182	788.94025	650.33148	-384.87143	821.24512	422.90970	-578.66565	808.91382	329.88577	-531.95410	736.76123	194.94560	-597.03076	666.42865	113.92899	-551.31982	627.51764	151.86972	-541.19849	663.81036	31.07737	-489.79071	939.74963	433.51877	-268.35269	974.80457	351.71509	-321.56799	998.15961	191.22183	-279.38739	958.26019	100.56039	-306.27380	903.61218	109.63774	-319.82208	1015.52808	36.65724	-353.90170 
7	0.060	822.95020	326.28693	-484.62366	864.67407	572.34729	-476.33240	667.26868	113.97856	-519.78595	975.54114	353.26096	-365.85092	865.39136	575.87817	-343.45709	940.17670	100.60724	-331.52151	914.36346	616.96313	-499.82819	913.98651	621.62903	-322.12555	798.45795	652.21973	-444.45486	798.19598	650.82483	-384.26013	830.29999	421.41623	-576.61035	819.09235	328.48380	-530.40894	745.15765	195.47299	-596.32727	673.85022	114.33858	-551.09961	636.42322	153.61401	-540.55969	665.91962	30.97998	-490.29141	948.81921	434.75983	-266.45868	982.88928	352.27905	-319.94571	1001.91559	190.88464	-278.16141	959.76208	101.38827	-305.59747	905.44824	111.83519	-318.92026	1015.26904	36.52184	-353.83340 
8	0.070	833.59943	325.10849	-483.02203	874.12903	571.44543	-473.87064	675.54401	114.08060	-519.60382	982.45264	353.79730	-363.51535	874.34259	577.37701	-341.07901	941.65845	101.78175	-330.93115	923.92920	615.60468	-498.08621	922.87720	623.49103	-320.28558	807.85760	651.81171	-443.95392	807.27197	651.68842	-383.67523	839.31500	420.32242	-574.50165	829.20038	327.53094	-528.74701	754.09741	196.20288	-595.56635	681.95898	114.70946	-550.94794	646.00220	155.23305	-540.14948	668.51984	31.05460	-490.88870	956.20673	435.67963	-264.07782	989.71674	352.70215	-317.59927	1004.56488	190.53751	-276.21506	960.92114	102.04790	-304.75629	907.05627	113.86398	-318.03717	1014.95081	36.42561	-353.63055 
9	0.080	844.07343	324.49069	-481.30161	883.35449	571.08179	-471.60117	684.33563	114.23084	-519.46460	988.63672	354.23151	-360.64328	882.98114	579.06366	-338.91736	943.06720	102.63846	-330.24985	933.32190	614.79327	-496.36874	931.48212	625.43835	-318.52316	817.08673	651.88025	-443.37119	816.18127	652.88013	-383.03021	848.30640	419.67245	-572.37262	839.20715	327.06241	-526.97107	763.56726	197.07486	-594.69788	690.68292	115.09925	-550.81677	656.10913	156.74780	-539.96838	671.76025	31.33783	-491.50748	962.03522	436.28043	-261.30899	995.29010	352.91284	-314.64059	1006.35858	190.10690	-273.70789	961.79694	102.45454	-303.69025	908.44391	115.57886	-317.03598	1014.66174	36.34642	-353.29156 
10	0.090	854.37488	324.43207	-479.46124	892.34100	571.27618	-469.59604	693.52673	114.53485	-519.30365	994.05841	354.51453	-357.37228	891.32849	580.85046	-337.02103	944.35333	103.18619	-329.39789	942.52118	614.58270	-494.70203	939.82281	627.37384	-316.87930	826.13452	652.42603	-442.68109	824.91089	654.36987	-382.29807	857.33740	419.46484	-570.25360	849.14465	327.05994	-525.08734	773.57330	197.99989	-593.66315	699.94067	115.56741	-550.63721	666.57825	158.18564	-539.98364	675.82544	31.83994	-492.03040	966.58350	436.68948	-258.28314	999.72888	352.94077	-311.24609	1007.55762	189.59079	-270.84979	962.45355	102.61031	-302.41086	909.63086	116.93576	-315.87088	1014.43427	36.27148	-352.83923 
11	0.100	864.53888	324.87875	-477.50464	901.09595	572.00323	-467.85001	703.00854	115.08163	-519.04333	998.71667	354.67194	-353.87787	899.39038	582.72284	-335.36966	945.50452	103.49689	-328.36880	951.52216	614.96393	-493.07864	947.89282	629.29865	-315.34213	834.99359	653.42700	-441.91843	833.42566	656.13361	-381.50827	866.51044	419.66168	-568.17291	859.08618	327.46689	-523.10687	784.11798	198.88268	-592.40784	709.64923	116.16279	-550.32788	677.24725	159.57213	-540.12598	680.91010	32.54208	-492.31369	970.22699	437.09482	-255.15012	1003.22968	352.88431	-307.63193	1008.39154	189.04893	-267.85278	962.96838	102.57915	-300.97510	910.65820	117.96719	-314.56021	1014.27185	36.19516	-352.30893 
12	0.110	874.60107	325.74713	-475.44186	909.63629	573.20435	-466.29941	712.69690	115.92687	-518.60553	1002.63062	354.77289	-350.36533	907.16119	584.71509	-333.89780	946.54645	103.66296	-327.20248	960.33008	615.87976	-491.46411	955.66888	631.27747	-313.86633	843.65576	654.84094	-441.15118	841.68658	658.14520	-380.72153	875.94806	420.20294	-566.15668	869.11591	328.20862	-521.04730	795.17517	199.65031	-590.89417	719.73212	116.91692	-549.80688	687.98346	160.92752	-540.28937	687.17896	33.40094	-492.22049	973.35315	437.66626	-252.06635	1006.01129	352.85809	-304.02792	1009.03473	188.57146	-264.89828	963.42548	102.45250	-299.45578	911.57880	118.74727	-313.14932	1014.16571	36.11708	-351.73840 
13	0.120	884.57874	326.94910	-473.29251	917.97693	574.80505	-464.86523	722.54614	117.08456	-517.92590	1005.83838	354.89639	-347.04773	914.63501	586.86548	-332.53156	947.52295	103.76955	-325.96011	968.95062	617.24884	-489.81717	963.12939	633.37976	-312.40408	852.10919	656.61090	-440.44730	849.66827	660.37061	-379.99673	885.76849	421.02121	-564.22675	879.30499	329.21149	-518.93311	806.67383	200.27811	-589.11188	730.12512	117.84303	-549.00616	698.70221	162.26569	-540.34058	694.73340	34.36089	-491.65939	976.27887	438.49768	-249.18158	1008.26666	352.94778	-300.65201	1009.60596	188.24278	-262.13007	963.89996	102.32066	-297.92542	912.44232	119.36002	-311.68967	1014.10278	36.04005	-351.16202 
14	0.130	894.47369	328.40918	-471.08484	926.12305	576.72894	-463.49231	732.55298	118.52656	-516.96472	1008.40198	355.10370	-344.11417	921.81390	589.17908	-331.22263	948.46503	103.88076	-324.71378	977.38080	618.98694	-488.11209	970.26868	635.63055	-310.93329	860.34009	658.67169	-439.85068	857.36694	662.76807	-379.36850	896.06000	422.05203	-562.39764	889.69983	330.41516	-516.79242	818.49756	200.80101	-587.08423	740.78046	118.93858	-547.88623	709.37183	163.59311	-540.14142	703.60242	35.37260	-490.60727	979.20001	439.59012	-246.62399	1010.13818	353.18900	-297.68600	1010.18091	188.11305	-259.66599	964.43903	102.25174	-296.45728	913.28162	119.87811	-310.24182	1014.06824	35.96815	-350.61108 
15	0.140	904.28546	330.07245	-468.85742	934.06384	578.90613	-462.16986	742.75336	120.18998	-515.71130	1010.40424	355.42572	-341.70340	928.71252	591.61566	-329.96301	949.37006	104.03482	-323.54620	985.60406	621.01855	-486.35391	977.10529	637.99323	-309.46924	868.33551	660.95557	-439.37164	864.80084	665.29047	-378.84018	906.85876	423.23981	-560.67487	900.32123	331.77768	-514.65448	830.50098	201.30618	-584.86798	751.66901	120.18897	-546.44421	720.00677	164.90776	-539.57593	713.75946	36.40966	-489.10370	982.18542	440.87054	-244.48779	1011.71393	353.57001	-295.25885	1010.79822	188.18610	-257.60693	965.04767	102.28078	-295.13162	914.10352	120.35254	-308.88623	1014.04761	35.90406	-350.11652 
